# xmcd CD database file
#
# Track frame offsets:
#	150
#	14172
#	41500
#	66097
#	97590
#	110790
#	136027
#	147695
#	172415
#	191290
#	217532
#	242537
#	272347
#	292302
#	313380
#
# Disc length: 4540 seconds
#
# Revision: 0
# Processed by: cddbd v1.4PL0 Copyright (c) Steve Scherf et al.
# Submitted via: CDex 1.50Beta5
#
DISCID=e211ba0f
DTITLE=Duke Pearson - Introducing Duke Pearson's Big Band
DYEAR=1967
DGENRE=Jazz
TTITLE0=Ground Hog
TTITLE1=New Girl
TTITLE2=Bedouin
TTITLE3=Straight Up And Down
TTITLE4=Ready When You Are C.B.
TTITLE5=New Time Shuffle
TTITLE6=Mississippi Dip
TTITLE7=A Taste Of Honey
TTITLE8=Time After Time
TTITLE9=Disapproachment
TTITLE10=Tones For Joan's Bones
TTITLE11=Minor League
TTITLE12=Here's That Rainy Day
TTITLE13=Make It Good
TTITLE14=The Days of Wine and Roses
EXTD=YEAR: 1967
EXTT0=
EXTT1=
EXTT2=
EXTT3=
EXTT4=
EXTT5=
EXTT6=
EXTT7=
EXTT8=
EXTT9=
EXTT10=
EXTT11=
EXTT12=
EXTT13=
EXTT14=
PLAYORDER=
